<mxfile host="app.diagrams.net" modified="2024-06-06T12:22:06.849Z" agent="Mozilla/5.0 (Windows NT 10.0; Win64; x64; Chromium GOST) AppleWebKit/537.36 (KHTML, like Gecko) Chrome/111.0.0.0 Safari/537.36" version="24.4.15" etag="h9S_wCtPXslmLcoBYVwX" type="github">
  <diagram name="Страница — 1" id="o4GapBHe6iTWwOKENm1r">
    <mxGraphModel>
      <root>
        <mxCell id="0" />
        <mxCell id="1" parent="0" />
      </root>
    </mxGraphModel>
  </diagram>
</mxfile>
